PathFileType	4	(X/Y/Z)	C:/Users/opensim2020/Desktop/walking_exp_matlab/subject06_walking21_straight_02.trc																																																																																																																																		
DataRate	CameraRate	NumFrames	NumMarkers	Units	OrigDataRate	OrigDataStartFrame	OrigNumFrames																																																																																																																														
100	100	6	44	mm	100	1411	172																																																																																																																														
Frame#	Time	LFHD			RFHD			LBHD			RBHD			C7			T10			CLAV			STRN			RBAK			LSHO			LUPA			LELB			LFRM			LWRA			LWRB			LFIN			RSHO			RUPA			RELB			RFRM			RWRA			RWRB			RFIN			LASI			RASI			LPSI			RPSI			LTHI			LKNE			LTIB			LANK			LHEE			LTOE			RTHI			RKNE			RTIB			RANK			RHEE			RTOE			*39			*40			*41			*42			*43		
		X1	Y1	Z1	X2	Y2	Z2	X3	Y3	Z3	X4	Y4	Z4	X5	Y5	Z5	X6	Y6	Z6	X7	Y7	Z7	X8	Y8	Z8	X9	Y9	Z9	X10	Y10	Z10	X11	Y11	Z11	X12	Y12	Z12	X13	Y13	Z13	X14	Y14	Z14	X15	Y15	Z15	X16	Y16	Z16	X17	Y17	Z17	X18	Y18	Z18	X19	Y19	Z19	X20	Y20	Z20	X21	Y21	Z21	X22	Y22	Z22	X23	Y23	Z23	X24	Y24	Z24	X25	Y25	Z25	X26	Y26	Z26	X27	Y27	Z27	X28	Y28	Z28	X29	Y29	Z29	X30	Y30	Z30	X31	Y31	Z31	X32	Y32	Z32	X33	Y33	Z33	X34	Y34	Z34	X35	Y35	Z35	X36	Y36	Z36	X37	Y37	Z37	X38	Y38	Z38	X39	Y39	Z39	X40	Y40	Z40	X41	Y41	Z41	X42	Y42	Z42	X43	Y43	Z43	X44	Y44	Z44
																																																																																																																																					
151	1.5	550.87097	1660.96753	-1503.71741	533.58563	1645.84741	-1373.11707	420.80081	1602.97034	-1523.83411	404.67984	1593.14453	-1396.11414	415.03256	1442.55676	-1464.30615	392.69836	1111.48572	-1451.05884	528.06683	1369.61108	-1456.15332	576.61102	1197.32458	-1459.37439	344.935	1268.44531	-1384.86035	480.16901	1397.73169	-1622.00195	460.83591	1197.40466	-1695.81726	437.25626	1087.35205	-1708.45715	437.86029	939.08258	-1736.77185	474.7088	812.77979	-1696.27393	418.95526	822.25372	-1739.64905	438.53223	732.79102	-1738.98535	472.14325	1400.00732	-1297.86914	434.82141	1202.75452	-1209.15894	450.9234	1081.57397	-1195.56885	494.1651	970.13586	-1180.73596	592.82172	859.06268	-1216.60303	540.39587	841.31506	-1178.39258	598.8761	781.71252	-1177.85571	584.30164	969.97552	-1554.00842	568.26459	958.87921	-1335.83496	422.42398	983.29999	-1536.34033	419.04938	972.3559	-1369.38159	573.38397	655.50995	-1621.22363	610.65674	497.61655	-1591.8092	580.50238	241.42723	-1582.5675	572.84296	71.03785	-1541.51184	530.53809	57.98821	-1497.37451	716.21094	42.00383	-1536.64465	560.22412	614.54114	-1291.96643	592.19238	492.23917	-1308.80859	403.45712	330.19321	-1325.69678	250.69553	232.19595	-1375.27722	213.06398	252.26805	-1421.75708	290.76682	79.90869	-1377.94287	442.30963	1694.33289	-1457.71375	NaN	NaN	NaN	NaN	NaN	NaN	NaN	NaN	NaN	NaN	NaN	NaN
152	1.51	564.7558	1663.36218	-1502.53149	547.12195	1648.14856	-1372.01563	434.31802	1605.93774	-1523.64441	417.9928	1595.83875	-1395.46973	428.11414	1445.13257	-1464.07605	405.80475	1114.08252	-1451.77332	541.31183	1372.10425	-1455.50354	589.6521	1199.82617	-1459.01025	357.7977	1270.80188	-1385.7749	494.14328	1400.74097	-1621.43726	478.63324	1200.1864	-1695.86804	457.35333	1089.73511	-1709.08679	461.92273	941.54553	-1737.83008	500.75601	815.8476	-1697.1167	445.65097	824.34271	-1741.22168	467.8403	735.56012	-1740.98608	484.35391	1402.20398	-1297.50842	446.10925	1204.6239	-1209.8562	461.54535	1083.26685	-1196.75891	501.31418	970.37585	-1181.72607	596.72626	855.91956	-1216.59375	543.52057	839.99304	-1178.65295	599.9682	778.19836	-1177.97827	596.90833	971.94354	-1554.25854	581.38062	961.87128	-1336.07935	435.39075	985.74561	-1536.6521	432.15472	975.2807	-1369.79333	581.68475	656.27203	-1620.58545	616.27466	497.49298	-1591.53015	583.11481	241.43486	-1582.49316	572.87592	71.178	-1541.26624	530.44287	58.12656	-1497.1709	716.13831	42.08567	-1536.47961	579.75806	618.9137	-1292.74365	615.19501	497.63834	-1310.52039	430.60886	331.17017	-1326.25366	279.9657	228.1949	-1375.26611	240.57019	246.26501	-1421.87329	328.76718	79.60807	-1377.00696	456.11014	1696.94824	-1456.74438	NaN	NaN	NaN	NaN	NaN	NaN	NaN	NaN	NaN	NaN	NaN	NaN
153	1.52	578.56482	1665.57678	-1501.15161	560.46667	1650.18921	-1370.76196	448.15134	1608.6344	-1522.64343	431.33743	1598.36646	-1394.63306	441.56656	1447.57288	-1463.86279	418.88892	1116.66016	-1452.53882	554.38251	1374.49268	-1454.86035	602.74408	1202.27356	-1458.62268	370.65216	1273.21765	-1386.44727	507.96887	1403.73853	-1620.83594	496.09982	1202.97595	-1695.8894	477.77164	1092.17725	-1709.88147	486.08798	944.26947	-1738.73035	527.60492	819.46295	-1697.92188	472.56018	826.54736	-1742.28162	497.65665	738.77734	-1742.87524	496.46426	1404.34705	-1297.15393	457.384	1206.48901	-1210.51733	471.92181	1084.98486	-1197.99158	508.39975	970.8877	-1182.51819	600.26935	853.05176	-1216.44495	546.20392	838.88593	-1178.73523	600.67975	775.16174	-1177.8999	609.26404	973.58026	-1554.76086	594.45776	964.85278	-1336.4325	448.3447	987.98572	-1536.96606	445.35593	978.18701	-1370.01184	590.07373	656.79932	-1619.96155	621.89551	497.20093	-1591.19421	586.15808	241.60054	-1582.30786	573.05066	71.37939	-1541.10962	530.6391	58.19091	-1497.2616	716.03619	42.06181	-1536.27014	599.03198	623.48895	-1293.43774	637.81781	503.37643	-1312.20435	457.57117	331.05814	-1326.8208	309.6972	223.18617	-1375.56909	268.84073	238.67	-1422.28381	369.59665	80.47311	-1375.67468	469.99915	1699.55835	-1455.65405	NaN	NaN	NaN	NaN	NaN	NaN	NaN	NaN	NaN	NaN	NaN	NaN
154	1.53	592.33344	1667.61963	-1499.64038	573.82886	1651.99817	-1369.396	461.59552	1611.31091	-1521.82593	444.49164	1600.81348	-1393.86841	453.95462	1449.9707	-1464.12561	431.87659	1119.05835	-1453.29163	567.46484	1376.74268	-1454.18384	615.84485	1204.58777	-1458.29187	383.45355	1275.5116	-1386.97314	521.73456	1406.61841	-1620.13794	513.35089	1205.87207	-1695.87537	497.86002	1094.71753	-1710.4928	510.34427	947.08691	-1739.50623	554.89117	823.44727	-1698.61255	500.0011	829.11035	-1743.25623	528.05652	742.33441	-1744.3512	508.67209	1406.29468	-1296.79785	468.64963	1208.28064	-1211.05957	481.69083	1086.55872	-1199.26318	515.44281	971.51923	-1183.27661	603.88666	850.52704	-1216.1073	548.99951	838.29822	-1178.67151	601.15747	772.36847	-1177.77344	621.54926	974.94336	-1555.39697	607.65436	967.75934	-1336.84521	461.22458	990.00885	-1537.19727	458.63815	981.02136	-1370.26367	598.68134	657.02203	-1619.45129	627.33063	496.82309	-1590.85413	589.08203	241.69931	-1581.87415	573.24823	71.54855	-1540.88354	530.66156	58.40462	-1497.1488	716.01318	42.15836	-1536.08911	617.98627	628.11261	-1293.90405	659.45996	508.98956	-1313.69507	484.25153	330.44055	-1327.75476	340.05569	217.06551	-1376.06348	297.74197	229.69623	-1422.86084	409.28116	79.38563	-1374.98462	483.79901	1701.93213	-1454.3866	NaN	NaN	NaN	NaN	NaN	NaN	NaN	NaN	NaN	NaN	NaN	NaN
155	1.54	605.94202	1669.42432	-1498.00903	587.03583	1653.45654	-1367.87305	475.29443	1613.70386	-1520.71143	457.58408	1602.86792	-1392.89978	467.05109	1452.02344	-1463.96509	444.92545	1121.19946	-1453.86292	580.48218	1378.68335	-1453.52173	628.91785	1206.65125	-1458.01941	396.26804	1277.52368	-1387.36401	535.40436	1409.30164	-1619.45801	530.33875	1208.70837	-1695.94128	517.77252	1097.23291	-1711.14038	534.6687	949.98944	-1740.08301	582.65149	827.7865	-1699.12354	527.67401	831.63721	-1743.9967	558.8457	746.242	-1745.42834	520.79669	1407.95935	-1296.45911	479.58102	1209.88269	-1211.62842	491.12296	1087.91528	-1200.47729	522.33783	972.12622	-1183.95105	607.16626	847.91077	-1215.69641	551.76373	837.80817	-1178.50378	601.43225	769.75684	-1177.42456	633.90485	976.1037	-1556.25879	620.90607	970.50378	-1337.39038	473.94797	991.74261	-1537.43774	471.96161	983.70959	-1370.37903	607.26385	657.22058	-1619.02673	632.58246	496.39807	-1590.6886	591.40967	241.64415	-1581.49634	573.3667	71.74194	-1540.5957	530.90002	58.58021	-1496.71228	715.96204	42.29357	-1535.91504	636.43414	632.38434	-1294.38599	680.61133	514.4162	-1315.04944	510.57248	329.52008	-1328.98621	371.11194	209.79449	-1376.71814	327.5766	219.29761	-1423.56372	449.42917	77.89287	-1374.33228	497.46143	1704.07458	-1453.00696	NaN	NaN	NaN	NaN	NaN	NaN	NaN	NaN	NaN	NaN	NaN	NaN
156	1.55	619.54205	1670.99585	-1496.30579	600.10217	1654.6394	-1366.23804	488.76797	1615.75488	-1519.66064	470.64279	1604.49414	-1391.94067	480.12976	1453.54675	-1463.5011	457.91928	1123.09229	-1454.59912	593.54041	1380.31421	-1452.91125	641.88159	1208.27551	-1457.83264	409.01971	1279.22241	-1387.79285	548.99677	1411.76038	-1618.7323	547.18854	1211.37549	-1696.02368	537.41516	1099.64026	-1711.70386	558.95746	953.06897	-1740.78271	610.48224	832.32928	-1699.50537	555.5437	834.39917	-1744.58142	589.92114	750.41193	-1746.28113	533.09686	1409.2771	-1296.14709	490.42438	1211.23523	-1212.13684	500.59299	1089.07422	-1201.33704	528.99799	972.39209	-1184.55054	611.15967	845.95007	-1214.75452	554.62415	837.38605	-1178.3584	601.85846	767.33051	-1177.00464	646.23468	976.98932	-1557.20129	634.10748	972.90228	-1338.10925	486.7048	993.20471	-1537.4176	485.19464	986.15094	-1370.46387	615.5097	657.21759	-1618.86414	637.30292	495.8222	-1590.67224	593.14368	241.67409	-1581.2207	573.60602	71.94682	-1540.27917	530.5105	58.37843	-1496.56055	715.88556	42.42356	-1535.86157	654.92255	636.75775	-1294.70923	701.07141	519.43115	-1316.32312	536.91663	328.02353	-1330.05103	402.94031	201.75554	-1377.5354	358.65952	208.0132	-1424.60706	490.42413	76.48882	-1373.46387	511.02484	1705.8208	-1451.51758	NaN	NaN	NaN	NaN	NaN	NaN	NaN	NaN	NaN	NaN	NaN	NaN
